<?xml version="1.0" encoding="UTF-8" standalone="no"?>
<svg width="16px" height="12px" viewBox="0 0 16 12" version="1.1" xmlns="http://www.w3.org/2000/svg" xmlns:xlink="http://www.w3.org/1999/xlink" xmlns:sketch="http://www.bohemiancoding.com/sketch/ns">
    <!-- Generator: Sketch 3.4 (15588) - http://www.bohemiancoding.com/sketch -->
    <title>Shape-Copy-2</title>
    <desc>Created with Sketch.</desc>
    <defs></defs>
    <g id="Page-1" stroke="none" stroke-width="1" fill="none" fill-rule="evenodd" sketch:type="MSPage">
        <g id="iPhone-6-Copy-50" sketch:type="MSArtboardGroup" transform="translate(-728.000000, -571.000000)" fill="#4AAEE7">
            <g id="Group" sketch:type="MSLayerGroup" transform="translate(41.000000, 42.000000)">
                <g id="Group-+-Group-Copy" sketch:type="MSShapeGroup">
                    <g id="Group" transform="translate(367.000000, 0.000000)">
                        <path d="M320,534.920357 C320,538.185011 322.628878,540.840714 325.860555,540.840714 L330.046666,540.840714 L330.046666,539.149183 L325.860555,539.149183 C323.549822,539.149183 321.674444,537.254669 321.674444,534.920357 C321.674444,532.586045 323.549822,530.691531 325.860555,530.691531 L330.883889,530.691531 C332.273678,530.691531 333.395555,531.824856 333.395555,533.228826 C333.395555,534.632797 332.273678,535.766122 330.883889,535.766122 L325.860555,535.766122 C325.391711,535.766122 325.023333,535.393986 325.023333,534.920357 C325.023333,534.446728 325.391711,534.074592 325.860555,534.074592 L330.046666,534.074592 L330.046666,532.383061 L325.860555,532.383061 C324.470767,532.383061 323.348889,533.516387 323.348889,534.920357 C323.348889,536.324327 324.470767,537.457653 325.860555,537.457653 L330.883889,537.457653 C333.194622,537.457653 335.07,535.563139 335.07,533.228826 C335.07,530.894514 333.194622,529 330.883889,529 L325.860555,529 C322.628878,529 320,531.655703 320,534.920357 L320,534.920357 L320,534.920357 L320,534.920357 Z" id="Shape-Copy-2"></path>
                    </g>
                </g>
            </g>
        </g>
    </g>
</svg>