<?xml version="1.0" encoding="UTF-8" standalone="no"?>
<svg width="15px" height="12px" viewBox="0 0 15 12" version="1.1" xmlns="http://www.w3.org/2000/svg" xmlns:xlink="http://www.w3.org/1999/xlink" xmlns:sketch="http://www.bohemiancoding.com/sketch/ns">
    <!-- Generator: Sketch 3.4 (15588) - http://www.bohemiancoding.com/sketch -->
    <title>Shape-Copy-2</title>
    <desc>Created with Sketch.</desc>
    <defs></defs>
    <g id="Page-1" stroke="none" stroke-width="1" fill="none" fill-rule="evenodd" sketch:type="MSPage">
        <g id="iPhone-6-Copy-53" sketch:type="MSArtboardGroup" transform="translate(-694.000000, -531.000000)" fill="#4A5258">
            <g id="Group-Copy" sketch:type="MSLayerGroup" transform="translate(73.000000, 40.000000)">
                <g id="Group" transform="translate(339.000000, 0.000000)" sketch:type="MSShapeGroup">
                    <path d="M282,496.719492 C282,499.873384 284.539911,502.438985 287.662222,502.438985 L291.706667,502.438985 L291.706667,500.804844 L287.662222,500.804844 C285.429689,500.804844 283.617778,498.974607 283.617778,496.719492 C283.617778,494.464378 285.429689,492.634141 287.662222,492.634141 L292.515556,492.634141 C293.858311,492.634141 294.942223,493.729015 294.942223,495.085352 C294.942223,496.441688 293.858311,497.536563 292.515556,497.536563 L287.662222,497.536563 C287.209245,497.536563 286.853333,497.177052 286.853333,496.719492 C286.853333,496.261933 287.209245,495.902422 287.662222,495.902422 L291.706667,495.902422 L291.706667,494.268281 L287.662222,494.268281 C286.319467,494.268281 285.235556,495.363156 285.235556,496.719492 C285.235556,498.075829 286.319467,499.170703 287.662222,499.170703 L292.515556,499.170703 C294.748089,499.170703 296.56,497.340466 296.56,495.085352 C296.56,492.830238 294.748089,491 292.515556,491 L287.662222,491 C284.539911,491 282,493.565601 282,496.719492 L282,496.719492 L282,496.719492 L282,496.719492 Z" id="Shape-Copy-2"></path>
                </g>
            </g>
        </g>
    </g>
</svg>