<?xml version="1.0" encoding="UTF-8" standalone="no"?>
<svg width="10px" height="7px" viewBox="0 0 10 7" version="1.1" xmlns="http://www.w3.org/2000/svg" xmlns:xlink="http://www.w3.org/1999/xlink" xmlns:sketch="http://www.bohemiancoding.com/sketch/ns">
    <!-- Generator: Sketch 3.4 (15588) - http://www.bohemiancoding.com/sketch -->
    <title>Rectangle 129 + Rectangle 129 Copy 3</title>
    <desc>Created with Sketch.</desc>
    <defs></defs>
    <g id="Page-1" stroke="none" stroke-width="1" fill="none" fill-rule="evenodd" sketch:type="MSPage">
        <g id="iPhone-6-Copy-53" sketch:type="MSArtboardGroup" transform="translate(-658.000000, -491.000000)" stroke-width="0.9" stroke="#A2BBC9" fill="#A2BBC9">
            <g id="Group-Copy" sketch:type="MSLayerGroup" transform="translate(73.000000, 40.000000)">
                <g id="Group" transform="translate(339.000000, 0.000000)" sketch:type="MSShapeGroup">
                    <g id="Rectangle-15-Copy-4">
                        <g id="Group" transform="translate(13.000000, 34.000000)">
                            <g id="Rectangle-7-+-Hey,-how-are-you-tod" transform="translate(83.367688, 337.358423)">
                                <g id="Rectangle-129-+-Rectangle-129-Copy-3" transform="translate(150.253482, 80.068100)">
                                    <path d="M2.57768012,5.57806187 C2.38803084,5.44404051 2.3666348,5.20306141 2.52976649,5.0399442 L7.29274308,0.277390435 C7.45593039,0.114217611 7.71983209,0.113540458 7.88473409,0.278427819 L7.88473409,0.278427819 C8.04849438,0.442173574 8.04879528,0.707357023 7.88382805,0.872309615 L3.22663427,5.52908996 C3.06237359,5.69333606 2.77498777,5.71749524 2.5858236,5.5838167 L2.57768012,5.57806187 L2.57768012,5.57806187 Z" id="Rectangle-129-Copy-4"></path>
                                    <path d="M2.92546166,5.36985044 C2.75943026,5.51676766 2.49601281,5.50985685 2.33690596,5.35422267 L0.315022759,3.37646904 C0.15600382,3.22092084 0.154167386,2.97052374 0.31338311,2.81478305 L0.31338311,2.81478305 C0.471496497,2.66012064 0.726350195,2.6586546 0.88574492,2.81457038 L2.94001591,4.8240049 C3.09800922,4.97854986 3.0926506,5.22190895 2.92546166,5.36985044 L2.92546166,5.36985044 L2.92546166,5.36985044 Z" id="Rectangle-129-Copy-3"></path>
                                </g>
                            </g>
                        </g>
                    </g>
                </g>
            </g>
        </g>
    </g>
</svg>