<?xml version="1.0" encoding="UTF-8" standalone="no"?>
<svg width="11px" height="8px" viewBox="0 0 11 8" version="1.1" xmlns="http://www.w3.org/2000/svg" xmlns:xlink="http://www.w3.org/1999/xlink" xmlns:sketch="http://www.bohemiancoding.com/sketch/ns">
    <!-- Generator: Sketch 3.4 (15588) - http://www.bohemiancoding.com/sketch -->
    <title>Rectangle 129 + Rectangle 129 Copy 2</title>
    <desc>Created with Sketch.</desc>
    <defs></defs>
    <g id="Page-1" stroke="none" stroke-width="1" fill="none" fill-rule="evenodd" sketch:type="MSPage">
        <g id="iPhone-6-Copy-50" sketch:type="MSArtboardGroup" transform="translate(-682.000000, -525.000000)" stroke="#A2BBC9" fill="#A2BBC9">
            <g id="Group" sketch:type="MSLayerGroup" transform="translate(41.000000, 42.000000)">
                <g id="Group-+-Group-Copy" sketch:type="MSShapeGroup">
                    <g id="Group" transform="translate(367.000000, 0.000000)">
                        <g id="Rectangle-7-+-Hey,-how-are-you-tod" transform="translate(108.000000, 395.000000)">
                            <g id="Rectangle-129-+-Rectangle-129-Copy-2" transform="translate(167.000000, 89.000000)">
                                <path d="M2.86497574,6.20031578 C2.65418908,6.05134383 2.63040834,5.7834826 2.81172189,5.60216905 L8.10555655,0.308334388 C8.28693192,0.126959017 8.58024681,0.126206325 8.76352798,0.309487496 L8.76352798,0.309487496 C8.94554019,0.49149971 8.94587463,0.786265376 8.76252096,0.969619054 L3.58625914,6.14588087 C3.40369077,6.32844924 3.08427434,6.35530348 2.87402685,6.20671259 L2.86497574,6.20031578 L2.86497574,6.20031578 Z" id="Rectangle-129-Copy-4"></path>
                                <path d="M3.25151931,5.96887759 C3.06698286,6.13218397 2.77420618,6.12450224 2.59736607,5.95150647 L0.350133655,3.75312694 C0.173391242,3.58022675 0.171350129,3.3018969 0.348311259,3.12878275 L0.348311259,3.12878275 C0.52404719,2.95686717 0.807305635,2.95523759 0.984465716,3.12854636 L3.2676957,5.36214091 C3.44329817,5.53392594 3.43734231,5.80443266 3.25151931,5.96887759 L3.25151931,5.96887759 L3.25151931,5.96887759 Z" id="Rectangle-129-Copy-3"></path>
                            </g>
                        </g>
                    </g>
                </g>
            </g>
        </g>
    </g>
</svg>