<?xml version="1.0" encoding="UTF-8" standalone="no"?>
<svg width="18px" height="15px" viewBox="0 0 18 15" version="1.1" xmlns="http://www.w3.org/2000/svg" xmlns:xlink="http://www.w3.org/1999/xlink" xmlns:sketch="http://www.bohemiancoding.com/sketch/ns">
    <!-- Generator: Sketch 3.4 (15588) - http://www.bohemiancoding.com/sketch -->
    <title>Rectangle 129</title>
    <desc>Created with Sketch.</desc>
    <defs></defs>
    <g id="Page-1" stroke="none" stroke-width="1" fill="none" fill-rule="evenodd" sketch:type="MSPage">
        <g id="iPhone-6-Copy-49" sketch:type="MSArtboardGroup" transform="translate(-236.000000, -24.000000)" stroke="#4AAEE7" stroke-width="1.07142857" fill="#4AAEE7">
            <g id="Group" sketch:type="MSLayerGroup" transform="translate(213.000000, 0.000000)">
                <path d="M23.5714286,31.2809309 C23.5714286,30.8547808 23.9190075,30.5093179 24.3517566,30.5093179 L39.4324848,30.5093179 C39.863448,30.5093179 40.2128128,30.8518098 40.2128128,31.2809309 C40.2128128,31.7070809 39.8652338,32.0525438 39.4324848,32.0525438 L24.3517566,32.0525438 C23.9207933,32.0525438 23.5714286,31.710052 23.5714286,31.2809309 Z M23.5714286,25.4194445 C23.5714286,24.9937992 23.9190075,24.6487455 24.3517566,24.6487455 L39.4324848,24.6487455 C39.863448,24.6487455 40.2128128,24.9908317 40.2128128,25.4194445 C40.2128128,25.8450898 39.8652338,26.1901435 39.4324848,26.1901435 L24.3517566,26.1901435 C23.9207933,26.1901435 23.5714286,25.8480573 23.5714286,25.4194445 Z M23.5714286,37.1424172 C23.5714286,36.7167719 23.9190075,36.3717182 24.3517566,36.3717182 L39.4324848,36.3717182 C39.863448,36.3717182 40.2128128,36.7138044 40.2128128,37.1424172 C40.2128128,37.5680625 39.8652338,37.9131162 39.4324848,37.9131162 L24.3517566,37.9131162 C23.9207933,37.9131162 23.5714286,37.57103 23.5714286,37.1424172 Z" id="Rectangle-129" sketch:type="MSShapeGroup" transform="translate(31.892121, 31.280931) rotate(-180.000000) translate(-31.892121, -31.280931) "></path>
            </g>
        </g>
    </g>
</svg>