<?xml version="1.0" encoding="UTF-8" standalone="no"?>
<svg width="14px" height="21px" viewBox="0 0 14 21" version="1.1" xmlns="http://www.w3.org/2000/svg" xmlns:xlink="http://www.w3.org/1999/xlink" xmlns:sketch="http://www.bohemiancoding.com/sketch/ns">
    <!-- Generator: Sketch 3.4 (15588) - http://www.bohemiancoding.com/sketch -->
    <title>noun_120246_cc</title>
    <desc>Created with Sketch.</desc>
    <defs></defs>
    <g id="Page-1" stroke="none" stroke-width="1" fill="none" fill-rule="evenodd" sketch:type="MSPage">
        <g id="iPhone-6-Copy-50" sketch:type="MSArtboardGroup" transform="translate(-424.000000, -567.000000)" fill="#4AAEE7">
            <g id="noun_120246_cc" sketch:type="MSLayerGroup" transform="translate(424.000000, 567.000000)">
                <g id="Group" sketch:type="MSShapeGroup">
                    <path d="M6.99979412,0 C5.28417647,0 3.56855882,1.3125 3.56855882,3.50007 L3.56855882,10.5 C3.56855882,12.68757 5.28417647,14.00007 7,14.00007 C8.71582353,14.00007 10.4312353,12.68757 10.4312353,10.5 L10.4312353,3.50007 C10.4312353,1.3125 8.71561765,0 6.99979412,0 L6.99979412,0 Z M13.0047647,8.75007 C12.1468529,8.75007 12.1468529,8.75007 12.1468529,9.62514 L12.1468529,10.5 C12.1468529,13.56243 10.0021765,15.75 6.99979412,15.75 C3.99741176,15.75 1.85294118,13.56264 1.85294118,10.5 L1.85294118,9.62493 C1.85294118,8.74986 1.85294118,8.74986 0.995029412,8.74986 C0.137117647,8.74986 0.137117647,8.74986 0.137117647,9.62493 L0.137117647,10.5 C0.137117647,14.00007 2.28179412,16.62507 6.14208824,17.49993 L6.14208824,20.12493 C6.14208824,20.99979 6.14208824,20.99979 7,20.99979 C7.85791176,20.99979 7.85791176,20.99979 7.85791176,20.12493 L7.85791176,17.49993 C11.718,16.62507 13.8628824,14.00007 13.8628824,10.5 L13.8628824,9.62493 C13.8628824,8.75007 13.8628824,8.75007 13.0047647,8.75007 L13.0047647,8.75007 Z" id="Shape"></path>
                </g>
            </g>
        </g>
    </g>
</svg>