<?xml version="1.0" encoding="UTF-8" standalone="no"?>
<svg width="12px" height="18px" viewBox="0 0 12 18" version="1.1" xmlns="http://www.w3.org/2000/svg" xmlns:xlink="http://www.w3.org/1999/xlink" xmlns:sketch="http://www.bohemiancoding.com/sketch/ns">
    <!-- Generator: Sketch 3.4 (15588) - http://www.bohemiancoding.com/sketch -->
    <title>noun_120246_cc</title>
    <desc>Created with Sketch.</desc>
    <defs></defs>
    <g id="Page-1" stroke="none" stroke-width="1" fill="none" fill-rule="evenodd" sketch:type="MSPage">
        <g id="iPhone-6-Copy-53" sketch:type="MSArtboardGroup" transform="translate(-428.000000, -528.000000)" fill="#EC7262">
            <g id="Group-Copy" sketch:type="MSLayerGroup" transform="translate(74.000000, 40.000000)">
                <g id="Group" transform="translate(338.000000, 0.000000)" sketch:type="MSShapeGroup">
                    <g id="noun_120246_cc" transform="translate(16.000000, 488.000000)">
                        <g id="Group">
                            <path d="M5.81341376,0 C4.38857253,0 2.9637313,1.08995037 2.9637313,2.90659246 L2.9637313,8.71960298 C2.9637313,10.5362451 4.38857253,11.6261954 5.81358474,11.6261954 C7.23859696,11.6261954 8.6632672,10.5362451 8.6632672,8.71960298 L8.6632672,2.90659246 C8.6632672,1.08995037 7.23842597,0 5.81341376,0 L5.81341376,0 Z M10.8006145,7.26639395 C10.0881084,7.26639395 10.0881084,7.26639395 10.0881084,7.99308566 L10.0881084,8.71960298 C10.0881084,11.2627624 8.30692865,13.0794045 5.81341376,13.0794045 C3.31989886,13.0794045 1.53889008,11.2629368 1.53889008,8.71960298 L1.53889008,7.99291127 C1.53889008,7.26621955 1.53889008,7.26621955 0.826383973,7.26621955 C0.113877866,7.26621955 0.113877866,7.26621955 0.113877866,7.99291127 L0.113877866,8.71960298 C0.113877866,11.6261954 1.89505764,13.8060962 5.10107864,14.5326135 L5.10107864,16.7125142 C5.10107864,17.4390316 5.10107864,17.4390316 5.81358474,17.4390316 C6.52609085,17.4390316 6.52609085,17.4390316 6.52609085,16.7125142 L6.52609085,14.5326135 C9.73194086,13.8060962 11.5132916,11.6261954 11.5132916,8.71960298 L11.5132916,7.99291127 C11.5132916,7.26639395 11.5132916,7.26639395 10.8006145,7.26639395 L10.8006145,7.26639395 Z" id="Shape"></path>
                        </g>
                    </g>
                </g>
            </g>
        </g>
    </g>
</svg>