<?xml version="1.0" encoding="UTF-8" standalone="no"?>
<svg width="16px" height="16px" viewBox="0 0 16 16" version="1.1" xmlns="http://www.w3.org/2000/svg" xmlns:xlink="http://www.w3.org/1999/xlink" xmlns:sketch="http://www.bohemiancoding.com/sketch/ns">
    <!-- Generator: Sketch 3.4 (15588) - http://www.bohemiancoding.com/sketch -->
    <title>Group Copy 2</title>
    <desc>Created with Sketch.</desc>
    <defs></defs>
    <g id="Page-1" stroke="none" stroke-width="1" fill="none" fill-rule="evenodd" sketch:type="MSPage">
        <g id="iPhone-6-Copy-53" sketch:type="MSArtboardGroup" transform="translate(-660.000000, -529.000000)" fill="#FFBC44">
            <g id="Group-Copy" sketch:type="MSLayerGroup" transform="translate(73.000000, 40.000000)">
                <g id="Group" transform="translate(339.000000, 0.000000)" sketch:type="MSShapeGroup">
                    <g id="Group-Copy-2" transform="translate(248.000000, 489.000000)">
                        <path d="M7.65857406,15.3538829 C11.888234,15.3538829 15.3170509,11.9167992 15.3170509,7.67694146 C15.3170509,3.43708376 11.888234,0 7.65857406,0 C3.42891409,0 9.72133207e-05,3.43708376 9.72133207e-05,7.67694146 C9.72133207e-05,11.9167992 3.42891409,15.3538829 7.65857406,15.3538829 L7.65857406,15.3538829 Z M4.91323541,7.0221436 C5.51185668,7.0221436 5.99713517,6.53690823 5.99713517,5.93834005 C5.99713517,5.33977187 5.51185668,4.85453651 4.91323541,4.85453651 C4.31461408,4.85453651 3.82933564,5.33977187 3.82933564,5.93834005 C3.82933564,6.53690823 4.31461408,7.0221436 4.91323541,7.0221436 L4.91323541,7.0221436 Z M11.7409928,5.93834005 C11.7409928,5.33977187 11.2557143,4.85453651 10.657093,4.85453651 C10.0584717,4.85453651 9.57319327,5.33977187 9.57319327,5.93834005 C9.57319327,6.53690823 10.0584717,7.0221436 10.657093,7.0221436 C11.2557143,7.0221436 11.7409928,6.53690823 11.7409928,5.93834005 Z M11.4345632,9.59617682 C11.4345632,11.1861234 9.74417674,12.4750299 7.65897935,12.4750299 C5.57378192,12.4750299 3.88339548,11.1861234 3.88339548,9.59617682 L11.4345632,9.59617682 L11.4345632,9.59617682 Z" id="Shape"></path>
                    </g>
                </g>
            </g>
        </g>
    </g>
</svg>