<?xml version="1.0" encoding="UTF-8" standalone="no"?>
<svg width="16px" height="16px" viewBox="0 0 16 16" version="1.1" xmlns="http://www.w3.org/2000/svg" xmlns:xlink="http://www.w3.org/1999/xlink" xmlns:sketch="http://www.bohemiancoding.com/sketch/ns">
    <!-- Generator: Sketch 3.4 (15588) - http://www.bohemiancoding.com/sketch -->
    <title>Group</title>
    <desc>Created with Sketch.</desc>
    <defs></defs>
    <g id="Page-1" stroke="none" stroke-width="1" fill="none" fill-rule="evenodd" sketch:type="MSPage">
        <g id="iPhone-6-Copy-50" sketch:type="MSArtboardGroup" transform="translate(-697.000000, -569.000000)" fill="#4AAEE7">
            <g id="Group" sketch:type="MSLayerGroup" transform="translate(41.000000, 42.000000)">
                <g id="Group-+-Group-Copy" sketch:type="MSShapeGroup">
                    <g id="Group" transform="translate(367.000000, 0.000000)">
                        <g transform="translate(289.000000, 527.000000)" id="Shape">
                            <path d="M7.98015118,16 C12.387411,16 15.9602011,12.418278 15.9602011,8 C15.9602011,3.581722 12.387411,0 7.98015118,0 C3.57289132,0 0.000101295228,3.581722 0.000101295228,8 C0.000101295228,12.418278 3.57289132,16 7.98015118,16 L7.98015118,16 Z M5.11953805,7.31764715 C5.74329494,7.31764715 6.24894986,6.81199227 6.24894986,6.18823534 C6.24894986,5.56447841 5.74329494,5.05882353 5.11953805,5.05882353 C4.49578112,5.05882353 3.99012624,5.56447841 3.99012624,6.18823534 C3.99012624,6.81199227 4.49578112,7.31764715 5.11953805,7.31764715 L5.11953805,7.31764715 Z M12.2339873,6.18823534 C12.2339873,5.56447841 11.7283323,5.05882353 11.1045755,5.05882353 C10.4808185,5.05882353 9.97516365,5.56447841 9.97516365,6.18823534 C9.97516365,6.81199227 10.4808185,7.31764715 11.1045755,7.31764715 C11.7283323,7.31764715 12.2339873,6.81199227 12.2339873,6.18823534 Z M11.914691,10 C11.914691,11.6568542 10.1533266,13 7.98057349,13 C5.80782036,13 4.04645601,11.6568542 4.04645601,10 L11.914691,10 L11.914691,10 Z"></path>
                        </g>
                    </g>
                </g>
            </g>
        </g>
    </g>
</svg>