<?xml version="1.0" encoding="UTF-8" standalone="no"?>
<svg width="120px" height="120px" viewBox="0 0 120 120" version="1.1" xmlns="http://www.w3.org/2000/svg" xmlns:xlink="http://www.w3.org/1999/xlink" xmlns:sketch="http://www.bohemiancoding.com/sketch/ns">
    <!-- Generator: Sketch 3.3.3 (12081) - http://www.bohemiancoding.com/sketch -->
    <title>Mask</title>
    <desc>Created with Sketch.</desc>
    <defs>
        <path id="path-1" d="M380.799999,240 C367.5,240 363.25,240 357.25,242 C350.18,244.5 344.5,250.18 342,257.25 C340,263.25 340,267.5 340,280.799999 C340,280.799999 340,319.199997 340,319.199997 C340,332.5 340,336.75 342,342.75 C344.504639,349.82 350.18,355.5 357.25,358 C363.25,360 367.5,360 380.799999,360 L419.199997,360 C432.5,360 436.75,360 442.75,358 C449.82,355.5 455.5,349.82 458,342.75 C460,336.75 460,332.5 460,319.199997 L460,280.799999 C460,267.5 460,263.25 458,257.25 C455.5,250.25 449.739998,244.5 442.739998,242 C436.739998,240 432.5,240 419.199997,240 C426.199997,240 380.799999,240 380.799999,240 Z"></path>
    </defs>
    <g id="Page-1" stroke="none" stroke-width="1" fill="none" fill-rule="evenodd" sketch:type="MSPage">
        <g id="iPhone-6-Copy-24" sketch:type="MSArtboardGroup" transform="translate(-340.000000, -240.000000)">
            <mask id="mask-2" sketch:name="Mask" fill="white">
                <use xlink:href="#path-1"></use>
            </mask>
            <use id="Mask" fill="#FFFFFF" sketch:type="MSShapeGroup" xlink:href="#path-1"></use>
        </g>
    </g>
</svg>