<?xml version="1.0" encoding="UTF-8" standalone="no"?>
<svg width="90px" height="78px" viewBox="0 0 90 78" version="1.1" xmlns="http://www.w3.org/2000/svg" xmlns:xlink="http://www.w3.org/1999/xlink" xmlns:sketch="http://www.bohemiancoding.com/sketch/ns">
    <!-- Generator: Sketch 3.3.3 (12081) - http://www.bohemiancoding.com/sketch -->
    <title>Shape</title>
    <desc>Created with Sketch.</desc>
    <defs></defs>
    <g id="Page-1" stroke="none" stroke-width="1" fill="none" fill-rule="evenodd" sketch:type="MSPage">
        <path d="M63.5553,4.26325641e-14 C54.2664,4.26325641e-14 48.4029,4.48235859 45,8.53548874 C41.5971,4.48235859 35.7345,4.34251451e-14 26.442,4.34251451e-14 C10.6245,4.26325641e-14 0,14.5286244 0,28.0970621 C0,47.8496019 38.2662,74.3225563 42.6294,77.2753981 C43.344,77.7581686 44.172,78 45,78 C45.828,78 46.656,77.7581686 47.3706,77.2753981 C51.7338,74.3225563 90,47.8496019 90,28.0970621 C90,14.5286244 79.3737,4.26325641e-14 63.5553,4.26325641e-14 L63.5553,4.26325641e-14 Z" id="Shape" fill="#F65454" sketch:type="MSShapeGroup"></path>
    </g>
</svg>